<svg width="345" height="89" viewBox="0 0 345 89" fill="none" xmlns="http://www.w3.org/2000/svg">
<path d="M15.448 42V26.896L0.6 0.783997H13.144L21.464 16.336L29.784 0.783997H42.328L27.48 26.896V42H15.448ZM55.2655 42.64C49.2068 42.64 44.7268 41.296 41.8255 38.608C38.9668 35.92 37.5375 31.9947 37.5375 26.832C37.5375 21.712 38.9882 17.808 41.8895 15.12C44.7908 12.3893 49.2495 11.024 55.2655 11.024C61.3242 11.024 65.8042 12.3893 68.7055 15.12C71.6495 17.808 73.1215 21.712 73.1215 26.832C73.1215 31.9947 71.6708 35.92 68.7695 38.608C65.8682 41.296 61.3668 42.64 55.2655 42.64ZM55.2655 33.872C57.2282 33.872 58.6362 33.3173 59.4895 32.208C60.3855 31.0987 60.8335 29.3067 60.8335 26.832C60.8335 24.4 60.3855 22.6293 59.4895 21.52C58.6362 20.368 57.2282 19.792 55.2655 19.792C53.3455 19.792 51.9588 20.368 51.1055 21.52C50.2522 22.6293 49.8255 24.4 49.8255 26.832C49.8255 29.3067 50.2522 31.0987 51.1055 32.208C51.9588 33.3173 53.3455 33.872 55.2655 33.872ZM88.638 42.64C85.0967 42.64 82.3233 41.6373 80.318 39.632C78.3127 37.6267 77.31 34.6827 77.31 30.8V11.664H89.342V29.84C89.342 32.4853 90.686 33.808 93.374 33.808C94.3553 33.808 95.3153 33.5947 96.254 33.168C97.1927 32.7413 97.9393 32.208 98.494 31.568V11.664H110.526V42H99.262L98.942 39.696C97.7473 40.5493 96.2753 41.2533 94.526 41.808C92.8193 42.3627 90.8567 42.64 88.638 42.64ZM116.255 42V11.664H127.839L128.159 14.096C129.396 13.3707 130.975 12.7093 132.895 12.112C134.815 11.5147 136.756 11.152 138.719 11.024V19.984C137.61 20.0693 136.394 20.2187 135.071 20.432C133.791 20.6453 132.532 20.9227 131.295 21.264C130.1 21.5627 129.098 21.904 128.287 22.288V42L116.255 42ZM1.88 88L1.88 46.784H24.536C28.7173 46.784 31.896 47.7653 34.072 49.728C36.248 51.6907 37.336 54.5067 37.336 58.176C37.336 60.3093 36.9307 62.1013 36.12 63.552C35.352 65.0027 34.328 66.1547 33.048 67.008C34.7973 67.6907 36.184 68.6933 37.208 70.016C38.2747 71.296 38.808 73.216 38.808 75.776C38.808 79.6587 37.6133 82.6667 35.224 84.8C32.8347 86.9333 29.4427 88 25.048 88H1.88ZM13.464 63.232H21.272C24.216 63.232 25.688 61.9093 25.688 59.264C25.688 57.9413 25.3253 56.9387 24.6 56.256C23.9173 55.5733 22.7013 55.232 20.952 55.232H13.464V63.232ZM13.464 79.616H21.784C23.4053 79.616 24.6 79.2747 25.368 78.592C26.136 77.9093 26.52 76.7787 26.52 75.2C26.52 73.8773 26.136 72.8747 25.368 72.192C24.6 71.5093 23.32 71.168 21.528 71.168H13.464V79.616ZM60.0215 88.64C56.4802 88.64 53.3442 88.064 50.6135 86.912C47.9255 85.7173 45.8135 83.9467 44.2775 81.6C42.7842 79.2533 42.0375 76.352 42.0375 72.896C42.0375 68.0747 43.4028 64.2347 46.1335 61.376C48.8642 58.4747 52.9388 57.024 58.3575 57.024C63.3068 57.024 67.1682 58.2827 69.9415 60.8C72.7575 63.3173 74.1655 66.752 74.1655 71.104V76.416H53.1095C53.6642 78.0373 54.7522 79.1893 56.3735 79.872C57.9948 80.5547 60.1922 80.896 62.9655 80.896C64.7148 80.896 66.4642 80.7467 68.2135 80.448C70.0055 80.1067 71.4348 79.7227 72.5015 79.296V86.528C69.5148 87.936 65.3548 88.64 60.0215 88.64ZM53.1095 69.888H63.7975V68.8C63.7975 67.6053 63.4135 66.624 62.6455 65.856C61.9202 65.088 60.6188 64.704 58.7415 64.704C56.6508 64.704 55.1788 65.152 54.3255 66.048C53.5148 66.9013 53.1095 68.1813 53.1095 69.888ZM90.1575 88.64C87.5548 88.64 85.1015 88.448 82.7975 88.064C80.5362 87.7227 78.7442 87.2747 77.4215 86.72V78.08C78.9148 78.7627 80.6855 79.296 82.7335 79.68C84.8242 80.064 86.5948 80.256 88.0455 80.256C89.5815 80.256 90.7335 80.2133 91.5015 80.128C92.3122 80.0427 92.7175 79.68 92.7175 79.04C92.7175 78.3147 92.0135 77.76 90.6055 77.376C89.1975 76.992 87.4268 76.4373 85.2935 75.712C82.5202 74.7307 80.4508 73.5787 79.0855 72.256C77.7202 70.9333 77.0375 69.0133 77.0375 66.496C77.0375 63.4667 78.2322 61.1413 80.6215 59.52C83.0108 57.856 86.7655 57.024 91.8855 57.024C93.8482 57.024 95.8748 57.1733 97.9655 57.472C100.056 57.7707 101.699 58.112 102.894 58.496V66.944C101.614 66.3893 100.206 65.984 98.6695 65.728C97.1762 65.472 95.8108 65.344 94.5735 65.344C93.2082 65.344 91.9922 65.408 90.9255 65.536C89.8588 65.664 89.3255 66.0267 89.3255 66.624C89.3255 67.3067 89.9228 67.7973 91.1175 68.096C92.3548 68.3947 93.9975 68.864 96.0455 69.504C98.3495 70.1867 100.142 70.9333 101.422 71.744C102.744 72.5547 103.662 73.536 104.174 74.688C104.728 75.84 105.006 77.2693 105.006 78.976C105.006 82.048 103.747 84.4373 101.23 86.144C98.7548 87.808 95.0642 88.64 90.1575 88.64ZM121.56 88.64C117.506 88.64 114.562 87.616 112.728 85.568C110.893 83.52 109.976 80.7467 109.976 77.248V66.56H106.008V57.664H109.976V51.456L122.008 48.576V57.664L128.984 57.664L128.536 66.56H122.008V76.352C122.008 77.632 122.328 78.5493 122.968 79.104C123.608 79.616 124.589 79.872 125.912 79.872C127.149 79.872 128.408 79.6587 129.688 79.232V87.232C127.426 88.1707 124.717 88.64 121.56 88.64ZM167.701 88.64C160.234 88.64 154.538 86.8053 150.613 83.136C146.688 79.4667 144.725 74.2827 144.725 67.584C144.725 60.672 146.645 55.3813 150.485 51.712C154.325 48 160.042 46.144 167.637 46.144C170.197 46.144 172.48 46.336 174.485 46.72C176.49 47.104 178.41 47.6373 180.245 48.32V58.816C176.576 57.1947 172.65 56.384 168.469 56.384C164.586 56.384 161.706 57.28 159.829 59.072C157.952 60.8213 157.013 63.6587 157.013 67.584C157.013 71.424 157.994 74.1973 159.957 75.904C161.962 77.568 164.842 78.4 168.597 78.4C170.645 78.4 172.629 78.208 174.549 77.824C176.512 77.44 178.453 76.8427 180.373 76.032V86.592C178.538 87.232 176.597 87.7227 174.549 88.064C172.544 88.448 170.261 88.64 167.701 88.64ZM184.88 88V44.864H196.912V59.52C197.979 58.7947 199.301 58.1973 200.88 57.728C202.501 57.2587 204.229 57.024 206.064 57.024C210.245 57.024 213.296 58.0053 215.216 59.968C217.136 61.888 218.096 64.8747 218.096 68.928V88H206V69.824C206 68.416 205.701 67.4133 205.104 66.816C204.549 66.2187 203.525 65.92 202.032 65.92C201.136 65.92 200.197 66.1333 199.216 66.56C198.277 66.9867 197.509 67.4987 196.912 68.096V88H184.88ZM239.578 88.64C233.519 88.64 229.039 87.296 226.138 84.608C223.279 81.92 221.85 77.9947 221.85 72.832C221.85 67.712 223.301 63.808 226.202 61.12C229.103 58.3893 233.562 57.024 239.578 57.024C245.637 57.024 250.117 58.3893 253.018 61.12C255.962 63.808 257.434 67.712 257.434 72.832C257.434 77.9947 255.983 81.92 253.082 84.608C250.181 87.296 245.679 88.64 239.578 88.64ZM239.578 79.872C241.541 79.872 242.949 79.3173 243.802 78.208C244.698 77.0987 245.146 75.3067 245.146 72.832C245.146 70.4 244.698 68.6293 243.802 67.52C242.949 66.368 241.541 65.792 239.578 65.792C237.658 65.792 236.271 66.368 235.418 67.52C234.565 68.6293 234.138 70.4 234.138 72.832C234.138 75.3067 234.565 77.0987 235.418 78.208C236.271 79.3173 237.658 79.872 239.578 79.872ZM262.805 53.632V44.928H275.797V53.632H262.805ZM263.765 88V66.432H259.349L260.373 57.664H275.797V88H263.765ZM298.144 88.64C292.64 88.64 288.288 87.3387 285.088 84.736C281.888 82.0907 280.288 78.1227 280.288 72.832C280.288 69.248 281.034 66.2827 282.528 63.936C284.021 61.5893 286.112 59.8613 288.8 58.752C291.488 57.6 294.624 57.024 298.208 57.024C300.469 57.024 302.496 57.1947 304.288 57.536C306.08 57.8347 307.786 58.368 309.408 59.136V67.584C306.89 66.3893 304.032 65.792 300.832 65.792C298.101 65.792 296.032 66.304 294.624 67.328C293.258 68.352 292.576 70.1867 292.576 72.832C292.576 75.3067 293.237 77.0987 294.56 78.208C295.882 79.3173 297.973 79.872 300.832 79.872C302.368 79.872 303.861 79.7013 305.312 79.36C306.762 78.976 308.149 78.4427 309.472 77.76V86.592C307.85 87.3173 306.101 87.8293 304.224 88.128C302.389 88.4693 300.362 88.64 298.144 88.64ZM330.647 88.64C327.105 88.64 323.969 88.064 321.239 86.912C318.551 85.7173 316.439 83.9467 314.903 81.6C313.409 79.2533 312.663 76.352 312.663 72.896C312.663 68.0747 314.028 64.2347 316.759 61.376C319.489 58.4747 323.564 57.024 328.983 57.024C333.932 57.024 337.793 58.2827 340.567 60.8C343.383 63.3173 344.791 66.752 344.791 71.104V76.416H323.735C324.289 78.0373 325.377 79.1893 326.999 79.872C328.62 80.5547 330.817 80.896 333.591 80.896C335.34 80.896 337.089 80.7467 338.839 80.448C340.631 80.1067 342.06 79.7227 343.127 79.296V86.528C340.14 87.936 335.98 88.64 330.647 88.64ZM323.735 69.888H334.423V68.8C334.423 67.6053 334.039 66.624 333.271 65.856C332.545 65.088 331.244 64.704 329.367 64.704C327.276 64.704 325.804 65.152 324.951 66.048C324.14 66.9013 323.735 68.1813 323.735 69.888Z" fill="#FFFDFD" fill-opacity="0.4"/>
</svg>
