<svg width="18" height="12" viewBox="0 0 18 12" fill="none" xmlns="http://www.w3.org/2000/svg">
<path d="M6 11.1429C6 10.9155 6.07902 10.6975 6.21967 10.5368C6.36032 10.376 6.55109 10.2857 6.75 10.2857H11.25C11.4489 10.2857 11.6397 10.376 11.7803 10.5368C11.921 10.6975 12 10.9155 12 11.1429C12 11.3702 11.921 11.5882 11.7803 11.7489C11.6397 11.9097 11.4489 12 11.25 12H6.75C6.55109 12 6.36032 11.9097 6.21967 11.7489C6.07902 11.5882 6 11.3702 6 11.1429ZM3 6C3 5.77267 3.07902 5.55465 3.21967 5.39391C3.36032 5.23316 3.55109 5.14286 3.75 5.14286H14.25C14.4489 5.14286 14.6397 5.23316 14.7803 5.39391C14.921 5.55465 15 5.77267 15 6C15 6.22733 14.921 6.44535 14.7803 6.60609C14.6397 6.76684 14.4489 6.85714 14.25 6.85714H3.75C3.55109 6.85714 3.36032 6.76684 3.21967 6.60609C3.07902 6.44535 3 6.22733 3 6ZM0 0.857143C0 0.629814 0.0790178 0.411797 0.21967 0.251051C0.360322 0.090306 0.551088 0 0.75 0H17.25C17.4489 0 17.6397 0.090306 17.7803 0.251051C17.921 0.411797 18 0.629814 18 0.857143C18 1.08447 17.921 1.30249 17.7803 1.46323C17.6397 1.62398 17.4489 1.71429 17.25 1.71429H0.75C0.551088 1.71429 0.360322 1.62398 0.21967 1.46323C0.0790178 1.30249 0 1.08447 0 0.857143Z" fill="#1E1B1B"/>
</svg>
