<svg width="25" height="24" viewBox="0 0 25 24" fill="none" xmlns="http://www.w3.org/2000/svg">
<path d="M19.19 11.5298C18.62 11.3798 17.95 11.2998 17.15 11.2998C16.04 11.2998 15.63 11.5698 15.06 11.9998C15.03 12.0198 15 12.0498 14.97 12.0798L14.02 13.0898C13.22 13.9298 11.78 13.9398 10.98 13.0798L10.03 12.0798C9.99999 12.0498 9.96999 12.0198 9.93999 11.9998C9.36999 11.5698 8.95999 11.2998 7.84999 11.2998C7.04999 11.2998 6.37999 11.3798 5.80999 11.5298C3.42999 12.1698 3.42999 14.0598 3.42999 15.7198V16.6498C3.42999 19.1598 3.42999 21.9998 8.77999 21.9998H16.22C19.77 21.9998 21.57 20.1998 21.57 16.6498V15.7198C21.57 14.0598 21.57 12.1698 19.19 11.5298ZM14.83 18.3998H10.17C9.78999 18.3998 9.47999 18.0898 9.47999 17.6998C9.47999 17.3098 9.78999 16.9998 10.17 16.9998H14.83C15.21 16.9998 15.52 17.3098 15.52 17.6998C15.52 18.0898 15.21 18.3998 14.83 18.3998Z" fill="#9F9F9F"/>
<path d="M13.17 2.67C13.17 2.3 12.87 2 12.5 2C12.13 2 11.83 2.3 11.83 2.67V4H13.18V2.67H13.17Z" fill="#9F9F9F"/>
<path d="M19.71 8.42V10.12C19.67 10.1 19.62 10.09 19.58 10.08H19.57C18.86 9.89 18.07 9.8 17.15 9.8C15.61 9.8 14.88 10.25 14.22 10.75C14.08 10.85 13.98 10.95 13.88 11.05L12.93 12.06C12.83 12.16 12.67 12.22 12.5 12.22C12.42 12.22 12.22 12.21 12.07 12.05L11.09 11.02C10.99 10.91 10.87 10.82 10.84 10.8C10.12 10.25 9.39001 9.8 7.85001 9.8C6.93001 9.8 6.14001 9.89 5.42001 10.08C5.38001 10.09 5.33001 10.1 5.29001 10.12V8.42C5.29001 6.35 5.29001 4 9.71001 4H11.83V7.45L11.18 6.8C10.91 6.53 10.49 6.53 10.22 6.8C9.96001 7.06 9.96001 7.49 10.22 7.75L12.02 9.55C12.03 9.56 12.04 9.56 12.04 9.57C12.1 9.62 12.17 9.67 12.24 9.7C12.33 9.73 12.41 9.75 12.5 9.75C12.59 9.75 12.67 9.73 12.76 9.7C12.84 9.67 12.91 9.62 12.98 9.55L14.78 7.75C15.04 7.49 15.04 7.06 14.78 6.8C14.51 6.53 14.09 6.53 13.82 6.8L13.17 7.45V4H15.29C19.71 4 19.71 6.35 19.71 8.42Z" fill="#9F9F9F"/>
</svg>
